<svg width="400" height="400" viewBox="0 0 400 400" xmlns="http://www.w3.org/2000/svg">
<g transform="translate(200,200)">
  <circle r="185" fill="#C8860A" />
  <circle r="175" fill="#E8A020" />
  <circle r="163" fill="none" stroke="#B87010" stroke-width="3" />
  <circle r="150" fill="none" stroke="#B87010" stroke-width="1.5" />
  <rect x="-46" y="-46" width="92" height="92" fill="#C8860A" rx="2"/>
  <rect x="-40" y="-40" width="80" height="80" fill="#3D2200" rx="1"/>
  <text x="-90" y="20" text-anchor="middle" font-family="serif" font-size="62" font-weight="normal" fill="#7A4800">戶</text>
  <text x="90" y="20" text-anchor="middle" font-family="serif" font-size="62" font-weight="normal" fill="#7A4800">部</text>
  <g stroke="#B87010" stroke-width="1" opacity="0.6">
    <line x1="0" y1="-155" x2="0" y2="-166"/>
    <line x1="0" y1="155" x2="0" y2="166"/>
    <line x1="-155" y1="0" x2="-166" y2="0"/>
    <line x1="155" y1="0" x2="166" y2="0"/>
    <line x1="-110" y1="-110" x2="-118" y2="-118"/>
    <line x1="110" y1="-110" x2="118" y2="-118"/>
    <line x1="-110" y1="110" x2="-118" y2="118"/>
    <line x1="110" y1="110" x2="118" y2="118"/>
    <line x1="-55" y1="-148" x2="-59" y2="-158"/>
    <line x1="55" y1="-148" x2="59" y2="-158"/>
    <line x1="-55" y1="148" x2="-59" y2="158"/>
    <line x1="55" y1="148" x2="59" y2="158"/>
    <line x1="-148" y1="-55" x2="-158" y2="-59"/>
    <line x1="148" y1="-55" x2="158" y2="-59"/>
    <line x1="-148" y1="55" x2="-158" y2="59"/>
    <line x1="148" y1="55" x2="158" y2="59"/>
  </g>
  <circle cx="0" cy="-168" r="4" fill="#B87010"/>
  <circle cx="0" cy="168" r="4" fill="#B87010"/>
  <circle cx="-168" cy="0" r="4" fill="#B87010"/>
  <circle cx="168" cy="0" r="4" fill="#B87010"/>
</g>
</svg>
